<?xml version="1.0" encoding="UTF-8" standalone="no"?>
<!-- Created with Inkscape (http://www.inkscape.org/) -->

<svg
   xmlns:dc="http://purl.org/dc/elements/1.1/"
   xmlns:cc="http://creativecommons.org/ns#"
   xmlns:rdf="http://www.w3.org/1999/02/22-rdf-syntax-ns#"
   xmlns:svg="http://www.w3.org/2000/svg"
   xmlns="http://www.w3.org/2000/svg"
   xmlns:sodipodi="http://sodipodi.sourceforge.net/DTD/sodipodi-0.dtd"
   xmlns:inkscape="http://www.inkscape.org/namespaces/inkscape"
   width="210mm"
   height="297mm"
   viewBox="0 0 210 297"
   version="1.1"
   id="svg8"
   inkscape:version="0.92.5 (2060ec1f9f, 2020-04-08)"
   sodipodi:docname="duck_toddler_drawing.svg">
  <defs
     id="defs2" />
  <sodipodi:namedview
     id="base"
     pagecolor="#ffffff"
     bordercolor="#666666"
     borderopacity="1.0"
     inkscape:pageopacity="0.0"
     inkscape:pageshadow="2"
     inkscape:zoom="1.4"
     inkscape:cx="434.75249"
     inkscape:cy="773.10961"
     inkscape:document-units="mm"
     inkscape:current-layer="layer1"
     showgrid="false"
     inkscape:window-width="1920"
     inkscape:window-height="1016"
     inkscape:window-x="0"
     inkscape:window-y="27"
     inkscape:window-maximized="1" />
  <metadata
     id="metadata5">
    <rdf:RDF>
      <cc:Work
         rdf:about="">
        <dc:format>image/svg+xml</dc:format>
        <dc:type
           rdf:resource="http://purl.org/dc/dcmitype/StillImage" />
        <dc:title></dc:title>
      </cc:Work>
    </rdf:RDF>
  </metadata>
  <g
     inkscape:label="Layer 1"
     inkscape:groupmode="layer"
     id="layer1">
    <path
       style="fill:none;stroke:#000000;stroke-width:0.26458332px;stroke-linecap:butt;stroke-linejoin:miter;stroke-opacity:1"
       d="m 85.800593,54.339286 c 0,-1.133929 0,-2.267859 0,-3.401788 -0.602206,-0.664984 -0.55525,-1.95906 -2.078868,-1.700892 -1.053413,-0.244202 -2.57883,-0.872356 -3.779761,-0.377976 -0.600109,0.613866 -0.817006,1.305038 -1.511906,1.700892 -0.378908,0.767488 -1.312038,0.949259 -1.511903,1.889882 -1.038523,0.644194 -0.699656,2.810524 -1.13393,3.96875 -0.424116,0.50706 -0.07682,1.785532 -0.188987,2.604543 -0.08431,1.000381 0.190766,2.360158 -0.188989,3.065099 0.0816,1.342443 -0.07336,2.445263 -0.188989,3.590774 -0.525929,0.502298 -0.643615,1.499867 -1.322917,1.889882 -0.292593,0.946069 -1.107138,1.201906 -1.680621,1.973767 -0.189028,0.243518 -1.201702,0.854741 -1.721164,1.239029 -0.896057,0.365649 -1.287556,1.215772 -2.857993,1.13108 -0.939224,0.388074 -1.960269,0.667343 -3.000638,0.947791 -1.122518,-0.08997 -1.963448,0.101656 -2.908669,0.188986 -1.928261,0 -3.856522,0 -5.784783,0 -0.399736,-0.545204 -2.060189,0.170309 -2.456844,-0.377976 -1.290501,-0.08165 -1.865924,-0.878373 -3.360498,-0.755951 -0.585182,-0.359759 -1.7695,-0.120381 -2.645833,-0.188989 -1.29674,-0.157695 -2.152346,0.402317 -2.980634,0.751274 -0.781707,0.391312 -1.143442,1.181322 -1.596368,1.894559 0.09689,1.029035 -0.333646,1.53065 -0.188989,2.607455 0.239363,0.970354 0.804101,1.615337 1.13393,2.495225 0.837621,0.489815 1.033147,1.159547 2.078868,1.322917 0.540554,0.538263 0.789812,1.359675 1.700892,1.511903 0.890156,0.433019 2.03752,0.565738 2.834823,1.13393 1.350188,0.09722 2.425112,0.473102 3.590771,0.755952 0.689012,0.634693 0.565717,2.080372 0.566965,3.401784 0.09567,1.65273 0.704643,1.27337 2.078869,1.700893 0.671646,0.529516 1.823749,0.569962 2.456846,1.13393 0.958959,0.100693 1.961678,0.331376 2.645834,0.755952 1.049132,0.7982 2.442348,0.594875 2.456844,-0.944941 0.642093,-1.264204 -1.22704,-1.526708 -2.267858,-1.700893 -0.749409,-0.474745 -1.886076,-0.505776 -2.078868,-1.511903 -0.423016,-0.521924 -0.07488,-1.814999 -0.188987,-2.645833 1.576141,0.0606 3.267836,-0.156886 4.724702,0.188986 0.629084,0.441289 1.244168,0.898268 1.889882,1.322917 0.414548,0.715994 0.351173,1.914781 1.322916,2.078868 0.382496,0.953781 1.481376,1.270608 2.456844,1.511906 0.872625,-0.05858 2.00736,0.491043 2.645834,0 0.924983,-0.206569 1.670037,-0.605913 2.267857,-1.133927 0.774401,-1.266102 -1.496416,-1.1927 -2.645833,-1.13393 -0.836553,-0.212674 -1.673767,-0.341831 -2.078868,-0.944941 -0.17562,-0.699288 -0.713473,-1.982064 -0.18899,-2.83482 0.0693,-1.061572 0.962447,-1.378696 1.889882,-1.700893 1.164921,-0.207194 2.37032,-0.398239 3.378609,-0.758804 1.796099,-0.09379 3.374109,-0.42049 4.558891,-1.131077 0.835499,-0.368359 1.929076,-0.475699 2.267858,-1.322917 0.806565,-0.51635 1.604575,-1.04126 2.078868,-1.889882 0.712136,-0.425499 1.075558,-1.260963 1.322916,-2.173361 0.439413,-1.375359 0.952797,-2.994097 1.133928,-4.630208 0.44856,-0.931063 0.605021,-2.13773 0.944941,-3.17442 0.316369,-0.839957 0.41918,-1.898825 0.377976,-3.097659 0.08085,-1.215491 -0.216016,-1.994548 -0.588094,-2.794362 -0.779917,-1.108433 0.46391,-1.035209 1.339619,-1.428538 1.308001,-0.254194 2.602591,-0.50635 4.008648,-0.65532 0.905784,0.04493 1.383736,-0.332096 2.382994,-0.188989 1.634543,0.04319 2.435896,-0.532191 4.007131,-0.755951 1.348881,-0.194 2.525241,-0.382412 3.779761,-0.944941 1.83604,0.05966 0.30984,-1.664252 -0.94494,-1.322917 -0.50181,-0.430337 -1.79255,-0.07174 -2.607453,-0.188987 -0.974174,-0.338751 -2.467497,-0.410551 -3.779761,-0.377978 -1.713683,-2.78e-4 -3.427411,3.88e-4 -5.141059,0 -0.423312,-0.432982 -1.791847,-0.06872 -2.598724,-0.188987 -0.747485,0.01426 -1.499409,0.130636 -2.12598,-0.377975 z"
       id="path20"
       inkscape:connector-curvature="0" />
  </g>
</svg>
